PathFileType	4	(X/Y/Z)	C:/Users/beibeiliu/ov580/test_trc/User2\sequence.43_training_dense_right.trc
DataRate	CameraRate	NumFrames	NumMarkers	Units	OrigDataRate	OrigDataStartFrame	OrigNumFrames
120	120	16	19	mm	120	54	107
Frame#	Time	ThumbCMC			ThumbMCP			ThumbIP			ThumbTip			IndexMCP			IndexPIP			IndexTip			MiddleMCP			MiddlePIP			MiddleTip			RingMCP			RingPIP			RingTip			PinkyMCP			PinkyPIP			PinkyTip			BackHand1			BackHand2			BackHand3	
		X0	Y0	Z0	X1	Y1	Z1	X2	Y2	Z2	X3	Y3	Z3	X4	Y4	Z4	X5	Y5	Z5	X6	Y6	Z6	X7	Y7	Z7	X8	Y8	Z8	X9	Y9	Z9	X10	Y10	Z10	X11	Y11	Z11	X12	Y12	Z12	X13	Y13	Z13	X14	Y14	Z14	X15	Y15	Z15	X16	Y16	Z16	X17	Y17	Z17	X18	Y18	Z18	
53	0.441667	32.4533	57.9703	35.7137	14.8007	67.3898	-1.28585	11.7361	80.4611	-32.0129	16.4935	95.2967	-58.8565	29.1881	122.299	-3.65498	10.3957	110.611	-26.8329	5.06957	75.6026	-25.2463	45.7271	128.22	-16.4821	21.6409	125.689	-48.1973	3.5233	102.849	-66.3517	61.6065	118.564	-35.8223	42.6588	119.851	-56.4503	12.9406	109.189	-72.2717	72.1244	95.5645	-40.6785	46.4363	84.5006	-58.3597	28.4055	61.1077	-46.5033	95.0241	82.6861	13.7311	101.838	57.3397	33.5131	71.5655	80.2646	47.6047	
54	0.45	35.1421	57.1965	34.1884	19.183	65.2456	-0.64377	13.4826	82.5264	-33.8257	16.0048	90.8147	-56.5983	27.8054	122.705	-7.96437	6.878	107.017	-28.1718	3.78221	75.1265	-24.9263	45.1457	128.604	-19.3747	20.6663	124.763	-48.3637	1.17752	104.022	-63.5098	59.0653	118.718	-34.2115	43.3552	119.023	-57.8538	17.2288	109.347	-72.75	68.9675	96.5135	-43.0183	42.8902	82.1712	-56.1471	29.2158	53.8599	-43.3219	91.4256	85.5049	12.7973	102.797	56.8328	32.1153	71.2819	82.8294	45.9078	
55	0.458333	35.7453	57.8137	33.6762	20.6978	68.3889	-2.01001	12.9196	80.222	-32.4709	19.885	92.7506	-57.9895	26.9435	123.129	-4.6872	9.78269	108.687	-27.6019	4.73657	76.4807	-25.2906	46.6865	127.837	-18.6489	23.1043	125.562	-46.0921	1.60797	100.199	-65.8106	63.9139	116.51	-33.6399	38.1716	120.005	-55.4129	18.0274	108.054	-75.8171	71.1314	95.7464	-39.9999	44.0705	81.1755	-57.6313	28.7608	58.3547	-42.7715	93.7391	85.7153	12.8854	101.946	55.8451	32.7984	69.1575	81.5588	47.4401	
56	0.466667	35.673	58.8362	35.0075	19.3351	67.8988	-1.67154	15.1597	83.0657	-31.9405	18.5116	93.5604	-56.3612	29.3366	123.218	-4.98036	9.24123	112.638	-24.5096	3.26315	76.0042	-24.2836	48.2547	128.589	-16.5468	27.4159	127.098	-44.6572	3.77462	104.403	-63.4014	62.4229	118.14	-29.3896	44.0261	120.526	-56.7323	21.187	109.527	-73.9405	70.165	97.6854	-37.5015	45.9605	84.0979	-57.2125	33.0433	56.5442	-45.7349	94.8853	82.8092	13.9866	102.847	57.5246	34.3186	72.1753	80.7578	45.9527	
57	0.475	35.0059	59.1884	36.2075	17.6856	71.5042	-1.06081	11.3235	86.5626	-33.8879	16.6709	92.5566	-53.6239	29.0343	125.58	-1.75063	9.81476	114.126	-27.0116	2.76095	78.6899	-27.6889	49.7519	129.064	-18.3906	24.1415	129.236	-46.2334	4.8757	107.198	-64.7805	65.3305	118.208	-31.9026	44.8287	122.603	-55.0232	16.7796	112.578	-70.9341	71.0971	99.2737	-41.7703	44.1034	89.008	-54.1393	27.905	58.8123	-46.5661	93.129	84.8469	16.0526	103.026	60.5146	31.6859	73.596	81.6852	45.354	
58	0.483333	36.593	64.1375	34.7433	15.1701	69.5873	1.96359	5.63275	83.0599	-29.6234	11.5748	91.4761	-55.2804	32.6406	125.431	-7.26511	7.52935	117.827	-30.242	-4.29351	87.9448	-35.9298	51.4531	128.332	-21.742	26.1788	127.491	-53.2528	-0.790706	106.47	-67.3938	62.6695	118.866	-34.418	43.4045	118.126	-61.7311	17.3901	107.183	-73.2035	71.5558	96.8215	-44.2324	43.5841	87.6284	-59.6617	25.0663	61.964	-55.1172	95.5915	82.0403	8.988	105.488	56.9298	30.6918	75.8393	82.3151	43.2478	
59	0.491667	39.4857	67.0744	34.9587	10.7264	73.7125	7.22284	4.615	83.8687	-26.5928	-0.632042	88.0059	-49.735	33.0082	127.161	-13.2718	12.7361	121.445	-37.0076	-5.75318	97.1093	-50.9039	50.2253	125.685	-34.2162	24.5567	122.56	-59.7807	0.0810272	100.307	-70.5341	63.981	112.637	-46.7656	40.4271	110.319	-69.2179	14.3025	91.0578	-74.4968	71.5924	90.019	-50.3413	42.796	82.9152	-66.178	22.458	62.2857	-57.623	94.4344	84.022	-0.552593	107.12	57.9556	24.7795	80.7796	84.4773	36.4176	
60	0.5	40.2393	72.8235	40.4678	14.5004	78.463	15.2349	-7.21481	87.9162	-11.4037	-20.3971	92.1451	-34.4533	36.5312	125.896	-25.6797	11.1121	124.379	-45.6511	-11.6473	110.894	-60.9574	49.8096	118.658	-40.1212	18.7875	112.771	-61.1918	-6.54031	77.6786	-60.1426	57.1633	101.68	-58.0146	31.7005	93.6245	-71.2364	7.40738	69.3275	-61.0564	66.8532	77.85	-57.388	32.6748	73.2487	-64.0762	16.395	51.6474	-55.2537	96.2943	78.115	-8.53796	108.095	57.7455	17.6649	83.1786	89.182	26.8154	
61	0.508333	44.7583	80.6069	39.3002	12.6995	87.1745	29.5675	-13.7177	98.2754	7.33657	-28.2317	100.517	-10.3582	37.8559	121.764	-28.0132	15.088	123.422	-53.1662	-8.39621	121.224	-66.4191	43.1436	102.089	-48.7304	5.55239	93.2957	-59.2732	-11.1911	65.0457	-38.9881	45.2006	86.0207	-58.5386	17.8377	75.662	-66.0971	2.53309	52.9281	-41.1417	53.4931	65.031	-59.3139	24.6026	55.3756	-63.2257	8.40898	40.7267	-34.0022	90.2097	69.2139	-16.2811	105.52	53.6509	11.4609	82.6278	88.2895	21.6285	
62	0.516667	52.503	86.8234	40.7611	23.6317	99.0691	34.4188	-5.17141	116.125	17.5654	-24.4678	122.989	9.89263	37.9639	111.472	-36.9118	18.282	116.471	-57.0204	-6.50676	122.018	-75.6738	29.0775	88.9387	-54.4073	-4.23582	77.2106	-51.41	-11.736	51.3115	-19.0114	34.8824	65.5131	-58.1561	1.56237	57.328	-51.3893	1.32471	41.7422	-16.4806	44.2245	43.6298	-57.5882	10.2381	39.983	-49.8235	8.01274	36.1481	-16.903	86.1312	58.4107	-17.9158	104.978	44.9619	8.30908	82.7072	82.402	11.215	
63	0.525	60.0807	91.0282	35.4279	37.5879	109.943	31.7889	12.7253	131.54	21.4009	-8.27287	145.198	15.124	34.4923	100.007	-44.3642	13.1218	111.069	-63.3452	-7.18251	108.475	-84.4251	22.1052	72.9939	-51.2272	-10.5693	63.3381	-43.2462	-11.248	44.6147	-2.14499	24.1472	49.3449	-52.3242	-5.058	41.05	-39.4094	0.860447	36.2131	-4.73897	32.3927	28.5206	-49.6516	3.11803	29.5064	-37.2739	6.40429	29.4331	-3.67106	80.6981	48.7011	-24.174	101.555	38.9891	6.81378	81.9479	78.4789	5.12025	
64	0.533333	68.3405	86.6536	33.9925	48.2537	114.715	25.8145	28.1193	137.024	19.5052	10.5738	153.893	12.3115	31.2999	95.1416	-45.2086	7.77377	100.672	-67.2895	-10.9815	98.8722	-86.7709	14.4062	66.5356	-47.5562	-16.2524	52.2477	-33.4804	-12.1919	45.3383	5.71017	15.4343	40.1455	-46.295	-11.9021	31.6004	-24.3501	0.993548	34.6613	5.54037	23.1323	20.9774	-41.9137	-3.3175	20.78	-21.1458	9.69256	23.766	8.22273	75.2743	39.0026	-25.8946	100.058	33.5655	2.28162	82.725	70.5738	0.563537	
65	0.541667	72.1148	86.4805	27.6573	55.7474	108.846	19.7196	39.8838	136.621	10.6006	25.1973	154.182	7.14629	29.4564	87.1484	-47.8345	6.53972	87.7845	-68.9987	-11.3438	90.2511	-85.9235	9.10351	55.5404	-48.5469	-18.21	47.9335	-29.3431	-11.293	44.1357	8.68717	9.03566	36.2563	-41.7095	-12.4769	31.7993	-19.2975	5.73249	35.2331	12.5061	17.0135	15.7721	-36.5093	-3.33195	16.029	-9.28707	15.0419	23.9873	12.2321	75.1512	33.2238	-25.2423	99.3133	30.5443	1.60382	83.5105	65.8827	-7.70768	
66	0.55	77.6311	85.3307	21.3029	63.5893	106.993	13.2292	48.8033	137.094	-1.56953	36.7686	154.13	-4.82427	27.6618	80.5448	-53.5299	9.3311	86.1026	-69.2012	-13.8816	86.4111	-91.0174	12.5006	53.4584	-47.7542	-18.5358	46.8667	-27.1509	-5.98774	43.0711	12.938	6.12872	30.3715	-40.3956	-12.2475	28.5941	-13.0083	6.97274	34.5101	14.0406	16.3796	11.7958	-34.0927	-2.6378	15.4685	-9.14283	20.3453	21.0893	16.8063	73.3344	27.1353	-31.1824	98.578	24.8096	-4.41218	86.0292	61.6948	-9.135	
67	0.558333	84.1744	84.2494	15.7257	70.8462	105.979	4.64966	55.1508	131.475	-12.2858	48.0288	153.322	-13.6135	30.5468	76.1059	-56.87	9.17507	81.2938	-73.8169	-12.7668	78.2378	-92.5901	9.07719	53.9232	-47.458	-17.2723	46.7889	-26.8221	-6.77162	44.1901	11.6623	11.0173	27.5643	-40.0856	-11.1031	29.6967	-15.1161	9.19796	34.8635	14.6881	16.1726	7.48035	-31.2464	-1.20502	19.589	-2.17284	21.6076	23.5761	17.7007	75.1725	24.4104	-29.6066	102.682	18.8563	-6.30662	87.5066	61.0105	-15.5761	
68	0.566667	87.7492	81.5034	11.7334	76.8249	102.604	0.724983	64.1695	134.025	-16.1524	56.0534	152.43	-20.871	33.422	72.5477	-56.9893	12.636	74.0547	-74.9359	-10.648	77.7534	-92.5836	8.64603	48.3885	-48.4189	-15.9537	46.783	-25.1149	-4.47123	46.4647	13.8036	8.60054	25.3099	-38.2881	-10.0109	31.7673	-13.0628	13.449	39.0454	17.0544	14.4955	8.83335	-29.0392	-0.654352	18.9526	-4.59049	25.6831	28.1986	17.2811	75.2506	22.9795	-30.333	100.257	17.1752	-10.11	88.7929	53.0538	-19.3341	
